<svg xmlns="http://www.w3.org/2000/svg" xmlns:xlink="http://www.w3.org/1999/xlink" width="910" height="194"><rect width="910" height="194" rx="5" ry="5" class="a"/><svg y="0%" x="0%"><circle cx="20" cy="20" r="6" fill="#ff5f58"/><circle cx="40" cy="20" r="6" fill="#ffbd2e"/><circle cx="60" cy="20" r="6" fill="#18c132"/></svg><svg height="803.27" viewBox="0 0 87 80.327" width="870" x="15" xmlns="http://www.w3.org/2000/svg" xmlns:xlink="http://www.w3.org/1999/xlink" y="50"><style>.a{fill:#282d35}.h,.i,.j,.k{fill:#e88388;font-weight:700}.i,.j,.k{fill:#66c2cd}.j,.k{fill:#71bef2}.k{fill:#dbab79}.l{fill:#b9c0cb}</style><g font-size="1.67" font-family="Monaco,Consolas,Menlo,'Bitstream Vera Sans Mono','Powerline Symbols',monospace"><defs><symbol id="a"><path fill="transparent" d="M0 0h87v37H0z"/></symbol><symbol id="b"><path fill="#6f7683" d="M0 0h1.102v2.171H0z"/></symbol></defs><path class="a" d="M0 0h87v80.327H0z"/><svg width="87"><svg><use xlink:href="#a"/><use xlink:href="#b" x="23.996" y="10.83"/><text y="1.67" class="h">➜</text><text x="3.006" y="1.67" class="i">tests</text><text x="9.018" y="1.67" class="j">git:(</text><text x="14.028" y="1.67" class="h">master</text><text x="20.04" y="1.67" class="j">)</text><text x="22.044" y="1.67" class="k">✗</text><text x="24.048" y="1.67" class="l">./sockets-json</text><text y="3.841" class="l">{&quot;msg&quot;:</text><text x="8.016" y="3.841" class="l">&quot;Client</text><text x="16.032" y="3.841" class="l">PSK&quot;,</text><text x="22.044" y="3.841" class="l">&quot;lvl&quot;:</text><text x="29.058" y="3.841" class="l">&quot;DEBUG&quot;,</text><text x="38.076" y="3.841" class="l">&quot;ts&quot;:</text><text x="44.088" y="3.841" class="l">&quot;2018-05-01</text><text x="56.112" y="3.841" class="l">18:56:14&quot;,</text><text x="67.134" y="3.841" class="l">&quot;tid&quot;:</text><text x="77.154" y="3.841" class="l">0,</text><text x="80.16" y="3.841" class="l">&quot;psk&quot;:</text><text y="6.012" class="l">&quot;5125debc6b736dbfcf68527f05d006479e5e62892c071782c0acda67a60e6e2f&quot;}</text><text y="8.183" class="l">{&quot;msg&quot;:</text><text x="8.016" y="8.183" class="l">&quot;New</text><text x="13.026" y="8.183" class="l">icoming</text><text x="21.042" y="8.183" class="l">connection&quot;,</text><text x="34.068" y="8.183" class="l">&quot;lvl&quot;:</text><text x="41.082" y="8.183" class="l">&quot;INFO&quot;,</text><text x="49.098" y="8.183" class="l">&quot;ts&quot;:</text><text x="55.11" y="8.183" class="l">&quot;2018-05-01</text><text x="67.134" y="8.183" class="l">18:56:14&quot;,</text><text x="78.156" y="8.183" class="l">&quot;tid&quot;:</text><text x="1.002" y="10.354" class="l">0,</text><text x="4.008" y="10.354" class="l">&quot;remoteAddr&quot;:</text><text x="18.036" y="10.354" class="l">&quot;192.168.1.2&quot;,</text><text x="33.066" y="10.354" class="l">&quot;remotePort&quot;:</text><text x="47.094" y="10.354" class="l">26532}</text><text y="12.525" fill="#a8cc8c" font-weight="700">➜</text><text x="3.006" y="12.525" class="i">tests</text><text x="9.018" y="12.525" class="j">git:(</text><text x="14.028" y="12.525" class="h">master</text><text x="20.04" y="12.525" class="j">)</text><text x="22.044" y="12.525" class="k">✗</text></svg></svg></g></svg></svg>
