<svg xmlns="http://www.w3.org/2000/svg" xmlns:xlink="http://www.w3.org/1999/xlink" width="910" height="303"><rect width="910" height="303" rx="5" ry="5" class="a"/><svg y="0%" x="0%"><circle cx="20" cy="20" r="6" fill="#ff5f58"/><circle cx="40" cy="20" r="6" fill="#ffbd2e"/><circle cx="60" cy="20" r="6" fill="#18c132"/></svg><svg height="803.27" viewBox="0 0 87 80.327" width="870" x="15" xmlns="http://www.w3.org/2000/svg" xmlns:xlink="http://www.w3.org/1999/xlink" y="50"><style>.a{fill:#282d35}.f,.g,.j,.k,.l{fill:#71bef2}.g,.j,.k,.l{font-weight:700}.j,.k,.l{fill:#e88388}.k,.l{fill:#66c2cd}.l{fill:#dbab79}.m{fill:#b9c0cb}.n{fill:#a8cc8c}.o{fill:#b9c0cb;font-weight:700}</style><g font-size="1.67" font-family="Monaco,Consolas,Menlo,'Bitstream Vera Sans Mono','Powerline Symbols',monospace"><defs><symbol id="1"><text x="2.004" y="1.67" class="f">tid:</text><text x="10.02" y="1.67" class="g">0</text></symbol><symbol id="a"><path fill="transparent" d="M0 0h87v37H0z"/></symbol><symbol id="b"><path fill="#6f7683" d="M0 0h1.102v2.171H0z"/></symbol></defs><path class="a" d="M0 0h87v80.327H0z"/><svg width="87"><svg><use xlink:href="#a"/><use xlink:href="#b" x="23.996" y="21.685"/><text y="1.67" class="j">➜</text><text x="3.006" y="1.67" class="k">tests</text><text x="9.018" y="1.67" class="g">git:(</text><text x="14.028" y="1.67" class="j">master</text><text x="20.04" y="1.67" class="g">)</text><text x="22.044" y="1.67" class="l">✗</text><text x="24.048" y="1.67" class="m">./sockets-textblocks</text><text y="3.841" class="m">[2018-05-01</text><text x="12.024" y="3.841" class="m">18:59:21]</text><text x="22.044" y="3.841" class="m">[</text><text x="23.046" y="3.841" class="n">DEBUG</text><text x="28.056" y="3.841" class="m">]</text><text x="30.06" y="3.841" class="o">Client</text><text x="37.074" y="3.841" class="o">PSK</text><use xlink:href="#1" y="4.342"/><text x="2.004" y="8.183" class="f">psk:</text><text x="7.014" y="8.183" class="g">5125debc6b736dbfcf68527f05d006479e5e62892c071782c0acda67a60e6e2f</text><text y="12.525" class="m">[2018-05-01</text><text x="12.024" y="12.525" class="m">18:59:21]</text><text x="22.044" y="12.525" class="m">[</text><text x="23.046" y="12.525" class="n">INFO</text><text x="27.054" y="12.525" class="m">]</text><text x="29.058" y="12.525" class="o">New</text><text x="33.066" y="12.525" class="o">icoming</text><text x="41.082" y="12.525" class="o">connection</text><use xlink:href="#1" y="13.026"/><text x="2.004" y="16.867" class="f">remoteAddr:</text><text x="14.028" y="16.867" class="g">192.168.1.2</text><text x="2.004" y="19.038" class="f">remotePort:</text><text x="14.028" y="19.038" class="g">26532</text><text y="23.38" fill="#a8cc8c" font-weight="700">➜</text><text x="3.006" y="23.38" class="k">tests</text><text x="9.018" y="23.38" class="g">git:(</text><text x="14.028" y="23.38" class="j">master</text><text x="20.04" y="23.38" class="g">)</text><text x="22.044" y="23.38" class="l">✗</text></svg></svg></g></svg></svg>
