<svg xmlns="http://www.w3.org/2000/svg" xmlns:xlink="http://www.w3.org/1999/xlink" width="910" height="193"><rect width="910" height="193" rx="5" ry="5" class="a"/><svg y="0%" x="0%"><circle cx="20" cy="20" r="6" fill="#ff5f58"/><circle cx="40" cy="20" r="6" fill="#ffbd2e"/><circle cx="60" cy="20" r="6" fill="#18c132"/></svg><svg height="803.27" viewBox="0 0 87 80.327" width="870" x="15" xmlns="http://www.w3.org/2000/svg" xmlns:xlink="http://www.w3.org/1999/xlink" y="50"><style>.a{fill:#282d35}.h,.i,.j,.k{fill:#e88388;font-weight:700}.i,.j,.k{fill:#66c2cd}.j,.k{fill:#71bef2}.k{fill:#dbab79}.l{fill:#b9c0cb}.m{fill:#a8cc8c}.n{fill:#b9c0cb;font-weight:700}.o{fill:#71bef2}</style><g font-size="1.67" font-family="Monaco,Consolas,Menlo,'Bitstream Vera Sans Mono','Powerline Symbols',monospace"><defs><symbol id="a"><path fill="transparent" d="M0 0h87v37H0z"/></symbol><symbol id="b"><path fill="#6f7683" d="M0 0h1.102v2.171H0z"/></symbol></defs><path class="a" d="M0 0h87v80.327H0z"/><svg width="87"><svg><use xlink:href="#a"/><use xlink:href="#b" x="23.996" y="10.83"/><text y="1.67" class="h">➜</text><text x="3.006" y="1.67" class="i">tests</text><text x="9.018" y="1.67" class="j">git:(</text><text x="14.028" y="1.67" class="h">master</text><text x="20.04" y="1.67" class="j">)</text><text x="22.044" y="1.67" class="k">✗</text><text x="24.048" y="1.67" class="l">./sockets-textlines</text><text y="3.841" class="l">[2018-05-01</text><text x="12.024" y="3.841" class="l">18:58:23]</text><text x="22.044" y="3.841" class="l">[</text><text x="23.046" y="3.841" class="m">DEBUG</text><text x="28.056" y="3.841" class="l">]</text><text x="30.06" y="3.841" class="n">Client</text><text x="37.074" y="3.841" class="n">PSK</text><text x="41.082" y="3.841" class="l">(</text><text x="42.084" y="3.841" class="o">tid=</text><text x="49.098" y="3.841" class="j">0</text><text x="50.1" y="3.841" class="l">,</text><text x="52.104" y="3.841" class="o">psk=</text><text x="56.112" y="3.841" class="j">5125debc6b736dbfcf68527f05d0064</text><text y="6.012" class="j">79e5e62892c071782c0acda67a60e6e2f</text><text x="33.066" y="6.012" class="l">)</text><text y="8.183" class="l">[2018-05-01</text><text x="12.024" y="8.183" class="l">18:58:23]</text><text x="22.044" y="8.183" class="l">[</text><text x="23.046" y="8.183" class="m">INFO</text><text x="27.054" y="8.183" class="l">]</text><text x="29.058" y="8.183" class="n">New</text><text x="33.066" y="8.183" class="n">icoming</text><text x="41.082" y="8.183" class="n">connection</text><text x="52.104" y="8.183" class="l">(</text><text x="53.106" y="8.183" class="o">tid=</text><text x="60.12" y="8.183" class="j">0</text><text x="61.122" y="8.183" class="l">,</text><text x="63.126" y="8.183" class="o">remoteAddr=</text><text x="74.148" y="8.183" class="j">192.168.1.2</text><text x="85.17" y="8.183" class="l">,</text><text y="10.354" class="o">remotePort=</text><text x="11.022" y="10.354" class="j">26532</text><text x="16.032" y="10.354" class="l">)</text><text y="12.525" fill="#a8cc8c" font-weight="700">➜</text><text x="3.006" y="12.525" class="i">tests</text><text x="9.018" y="12.525" class="j">git:(</text><text x="14.028" y="12.525" class="h">master</text><text x="20.04" y="12.525" class="j">)</text><text x="22.044" y="12.525" class="k">✗</text></svg></svg></g></svg></svg>
